<?xml version="1.0" encoding="UTF-8"?>
<svg id="Layer_3" data-name="Layer 3" xmlns="http://www.w3.org/2000/svg" viewBox="0 0 1080 1080">
  <defs>
    <style>
      .cls-1, .cls-2, .cls-3, .cls-4, .cls-5 {
        stroke: #000;
        stroke-miterlimit: 10;
      }

      .cls-1, .cls-3, .cls-4 {
        fill: none;
      }

      .cls-3 {
        stroke-width: 3px;
      }

      .cls-4 {
        stroke-width: 2px;
      }

      .cls-5 {
        fill: red;
      }
    </style>
  </defs>
  <line class="cls-2" x1="165.34" y1="522.48" x2="138" y2="538.87"/>
  <line class="cls-2" x1="165.34" y1="560.83" x2="138" y2="577.43"/>
  <line class="cls-2" x1="937.5" y1="515.5" x2="979.5" y2="489.5"/>
  <line class="cls-2" x1="980.87" y1="526.87" x2="937.5" y2="555.21"/>
  <g>
    <line class="cls-1" x1="386.5" y1="179.5" x2="386.5" y2="379.3"/>
    <line class="cls-1" x1="520.5" y1="134.5" x2="520.5" y2="379.5"/>
    <line class="cls-1" x1="602.96" y1="134.5" x2="602.96" y2="379.3"/>
    <line class="cls-1" x1="540" y1="206.96" x2="796.5" y2="374.5"/>
    <line class="cls-1" x1="777.6" y1="134.5" x2="520.5" y2="296.5"/>
    <line class="cls-1" x1="609.85" y1="371.13" x2="522.02" y2="336.5"/>
    <line class="cls-5" x1="324.15" y1="374.5" x2="386.5" y2="303.72"/>
    <polyline class="cls-2" points="520.5 288.91 393.5 377.5 461.26 377.5 520.5 336.5"/>
    <line class="cls-1" x1="826.5" y1="141.5" x2="517.5" y2="336.5"/>
    <polygon class="cls-2" points="736.06 377.5 736.06 335.02 607.38 250.97 607.38 311.21 668.25 344.23 593.43 377.5 736.06 377.5"/>
    <polygon class="cls-2" points="386.5 276.66 520.5 140.83 520.5 221.51 482.5 259.5 505.94 257 386.5 357.85 386.5 276.66"/>
  </g>
  <g>
    <line class="cls-1" x1="675.5" y1="951" x2="675.5" y2="739"/>
    <line class="cls-1" x1="541.5" y1="979" x2="541.5" y2="719"/>
    <line class="cls-1" x1="458.5" y1="980" x2="458.69" y2="724.7"/>
    <line class="cls-1" x1="521.65" y1="897.04" x2="248.5" y2="718.5"/>
    <line class="cls-1" x1="268.5" y1="979.5" x2="541.15" y2="807.5"/>
    <line class="cls-1" x1="451.8" y1="732.87" x2="539.63" y2="767.5"/>
    <line class="cls-5" x1="747.5" y1="718.5" x2="675.15" y2="800.28"/>
    <polyline class="cls-2" points="541.15 815.09 668.15 726.5 600.39 726.5 541.15 767.5"/>
    <polyline class="cls-1" points="617.5 719.5 235.15 962.5 245.51 979"/>
    <polygon class="cls-2" points="325.5 718.5 325.59 768.98 454.27 853.03 454.27 792.79 393.4 759.77 489.5 718.5 325.5 718.5"/>
    <polygon class="cls-2" points="675.15 827.34 541.15 963.17 541.15 882.49 579.15 844.5 555.71 847 675.15 746.15 675.15 827.34"/>
  </g>
  <line class="cls-1" x1="680.09" y1="718.5" x2="662.85" y2="729.5"/>
  <polygon class="cls-3" points="165.34 410.7 165.34 682.62 235.15 682.62 235.15 475.81 288.15 682.62 365.51 682.62 414 477 414 682.62 495.71 682.62 495.71 410.7 376.23 410.7 330.53 595.3 286.62 410.7 165.34 410.7"/>
  <polygon class="cls-3" points="549 411 549 682.62 628.23 682.62 628.23 410.7 549 411"/>
  <path class="cls-3" d="M792,619c36.55-2.63,58.6-29.59,61-76-.86-42.05-24.22-66.4-62-70h-26v87.83h-81.62v-150.13h129.45c82.95,2.35,124.28,46.15,126.13,129.3-2.55,92.04-47,139.39-126.13,142.62h-45.19s-84.26,0-84.26,0v-63.57"/>
  <line class="cls-4" x1="792" y1="619" x2="683.38" y2="619.04"/>
</svg>